<svg xmlns="http://www.w3.org/2000/svg" preserveAspectRatio="none" viewBox="0 0 1447.16 292.36"><defs><style>.cls-1{fill:#231f20;}.cls-2{fill:#f0ecff;}.cls-3{fill:none;stroke:#ddc0ff;stroke-miterlimit:10;stroke-width:7px;}</style></defs><title>Asset 1</title><g id="Layer_2" data-name="Layer 2"><g id="Layer_1-2" data-name="Layer 1"><g id="Layer_8" data-name="Layer 8"><rect class="cls-1" x="0.22" width="1444.22" height="276.08"/></g><path class="cls-2" d="M1444.44,292.06H.22V88c108.94-41.86,136.19-72.4,218-80.15,258.77-24.5,402.28,204,798.5,231.24,159.78,11,343.52-95.89,427.73-92.06C1447.84,481.44,1443.32-34.36,1444.44,292.06Z"/><path class="cls-3" d="M1445.94,235.82c-35.33,13.23-75.1,26.3-112.1,36.3-57,14-113,21-171,14a439.58,439.58,0,0,1-72-15c-9-3-18-6-28-9a365.72,365.72,0,0,1-46-18c-88-36-169-81-254-127-16-8-31-15-47-22-12-4-23-9-36-12-18-4-34-8-52-11-20-2-39-4-58-5-17-1-33,0-50,2-39,2-77,8-117,16-1,0-3,2-4,2-32,7-61,14-91,24-3,1-7,1-10,2-21,7-40,13-61,20-66,24-228.46,81.6-236.44,82.51"/></g></g></svg>